name C:\Users\u0101727\Documents\MyRepositories\paper-ad\predictivesimulations_2d/Results/PredSim_2D/IK_c18.mot
datacolumns 11
datarows 30
range 0.63318572 0.91140368
endheader
time	pelvis_tilt	pelvis_tx	pelvis_ty	hip_flexion_l	hip_flexion_r	knee_angle_l	knee_angle_r	ankle_angle_l	ankle_angle_r	lumbar_extension	
          0.63318572	        -15.05990617	          0.85496401	          0.89988821	         25.70030064	         11.38052562	        -10.64937797	        -40.88914797	          8.49412397	         -0.30616274	         10.31375079	
          0.64277944	        -15.07700661	          0.86693626	          0.90132592	         24.78143119	         12.65353607	        -10.40218323	        -41.78562559	          8.59699432	          0.66983952	         10.27537764	
          0.65237316	        -15.09162904	          0.87885267	          0.90251996	         23.84729159	         13.95898430	        -10.13015203	        -42.57417440	          8.74071473	          1.72580893	         10.23301782	
          0.66196689	        -15.10375741	          0.89072084	          0.90347359	         22.90231805	         15.29186701	         -9.84109855	        -43.24663525	          8.91942098	          2.84407581	         10.18698913	
          0.67156061	        -15.11351468	          0.90254808	          0.90419741	         21.95040703	         16.64620622	         -9.54208073	        -43.79548544	          9.12662792	          4.00682768	         10.13776749	
          0.68115433	        -15.12106481	          0.91434064	          0.90470837	         20.99572597	         18.01617619	         -9.24064816	        -44.21305696	          9.35465899	          5.19621840	         10.08578359	
          0.69074806	        -15.12654849	          0.92610408	          0.90502720	         20.04284482	         19.39627877	         -8.94466206	        -44.49156267	          9.59546333	          6.39442920	         10.03138000	
          0.70034178	        -15.13011067	          0.93784438	          0.90517531	         19.09656643	         20.78003898	         -8.66249199	        -44.62403747	          9.84109208	          7.58366649	          9.97493370	
          0.70993550	        -15.13197094	          0.94956860	          0.90517296	         18.16014187	         22.16052339	         -8.39978546	        -44.60485684	         10.08419958	          8.74625714	          9.91697884	
          0.71952922	        -15.13244516	          0.96128510	          0.90503824	         17.23438212	         23.53083172	         -8.15785078	        -44.42996784	         10.31813201	          9.86483179	          9.85825852	
          0.72912295	        -15.13181516	          0.97300264	          0.90478668	         16.32069797	         24.88310527	         -7.93946358	        -44.09734248	         10.53609378	         10.92265386	          9.79950469	
          0.73871667	        -15.13032511	          0.98472945	          0.90443139	         15.42123965	         26.20934700	         -7.74825325	        -43.60606961	         10.73198739	         11.90427715	          9.74134136	
          0.74831039	        -15.12821545	          0.99647460	          0.90398307	         14.53758616	         27.50076992	         -7.58725401	        -42.95917630	         10.90115609	         12.79630304	          9.68450078	
          0.75790412	        -15.12574396	          1.00824655	          0.90345086	         13.67066300	         28.74936031	         -7.45848921	        -42.16121049	         11.04062762	         13.58849833	          9.62967628	
          0.76749784	        -15.12317452	          1.02005193	          0.90284284	         12.82132586	         29.94891911	         -7.36302668	        -41.21652623	         11.14925420	         14.27477722	          9.57735622	
          0.77709156	        -15.12074542	          1.03189704	          0.90216559	         11.99028903	         31.09373759	         -7.30254916	        -40.13183112	         11.22774255	         14.85354028	          9.52798155	
          0.78668529	        -15.11867825	          1.04378624	          0.90142446	         11.17787403	         32.18087922	         -7.27795932	        -38.91260551	         11.27890080	         15.32761567	          9.48174082	
          0.79627901	        -15.11718482	          1.05572314	          0.90062328	         10.38396775	         33.20897682	         -7.28965473	        -37.56384720	         11.30718167	         15.70328235	          9.43870084	
          0.80587273	        -15.11648382	          1.06771109	          0.89976401	          9.60831690	         34.17743283	         -7.33764158	        -36.09094628	         11.31790419	         15.98890776	          9.39884137	
          0.81546645	        -15.11685772	          1.07975462	          0.89884683	          8.85031070	         35.08475385	         -7.42135497	        -34.50141856	         11.31633707	         16.19363544	          9.36223726	
          0.82506018	        -15.11869761	          1.09186019	          0.89787059	          8.10890523	         35.92747198	         -7.53974296	        -32.80301524	         11.30608988	         16.32658409	          9.32919630	
          0.83465390	        -15.12232616	          1.10403592	          0.89683417	          7.38374947	         36.70100243	         -7.69308707	        -31.00719136	         11.28798842	         16.39653361	          9.30010449	
          0.84424762	        -15.12781373	          1.11629380	          0.89574020	          6.67573957	         37.39862393	         -7.88505127	        -29.14012448	         11.26042878	         16.41162472	          9.27555235	
          0.85384135	        -15.13518954	          1.12865207	          0.89460109	          5.98690621	         38.00737849	         -8.12187362	        -27.23603054	         11.21738260	         16.37914238	          9.25684295	
          0.86343507	        -15.14447588	          1.14113220	          0.89343852	          5.32040288	         38.51148779	         -8.41067052	        -25.32710881	         11.14644084	         16.30547992	          9.24569625	
          0.87302879	        -15.15535435	          1.15375298	          0.89227501	          4.68063671	         38.90153457	         -8.75990908	        -23.44118962	         11.03132022	         16.19602618	          9.24329866	
          0.88262252	        -15.16702842	          1.16652900	          0.89112856	          4.07286646	         39.17739186	         -9.17943714	        -21.60014237	         10.85549248	         16.05490498	          9.25005621	
          0.89221624	        -15.17828516	          1.17947310	          0.89001345	          3.50237899	         39.34594718	         -9.67957658	        -19.82558219	         10.60468215	         15.88471469	          9.26589710	
          0.90180996	        -15.18790435	          1.19259917	          0.88894186	          2.97406030	         39.41441925	        -10.27001039	        -18.13231136	         10.26603996	         15.68664986	          9.29091260	
          0.91140368	        -15.19474270	          1.20592165	          0.88792297	          2.49234522	         39.38963247	        -10.95930913	        -16.53211763	          9.82741495	         15.46060563	          9.32534143	
